<svg version="1" xmlns="http://www.w3.org/2000/svg" width="894.667" height="894.667" viewBox="0 0 671.000000 671.000000"><path d="M381.2 50.6c-4.2 2.1-5.9 3.7-8 7.5l-2.7 4.9-46.5.1c-25.6 0-47.3.2-48.3.4-2.8.5-6.5 3.3-8.4 6.2-1.7 2.5-1.8 9.6-2.3 108.8l-.5 106-2.5-6.5c-8.6-22.7-26.6-46.5-45.2-59.7-2.9-2-5.5-4-5.8-4.4-.7-.9-13.6-8.1-19.2-10.7-2.5-1.2-8.6-3.5-13.5-5.1-8-2.7-11.8-3.6-23.8-5.8-5-.9-31.2-.9-38 0-29 4-54.9 17-76.6 38.7-14.2 14.2-23.5 28.4-31.1 47.5-2.3 5.8-2.1 4.9-5.4 18.5-3.7 15-4.1 38.7-1 55.4 3.1 16.8 11.3 35.9 22 51.6 5.4 8 27.7 31 30 31 .8 0 1.6.4 1.8.9.8 2.2 21.6 13.9 28.7 16.2 2 .6 4.1 1.5 4.6 1.9 1.3 1 21.3 6 26.8 6.7 11.1 1.4 37.8.7 45.7-1.3 1.4-.3 4.1-.9 6-1.4 1.9-.5 4.4-1.1 5.5-1.3 6.6-1.7 30-11.9 31.5-13.8.3-.4 1.9-1.5 3.6-2.5 7.7-4.6 13.6-9.5 22.9-18.8 13.4-13.5 24.3-30.1 30.6-46.6l2.4-6.5.5 115c.5 107.8.6 115.3 2.3 117.8 2.6 4 5.9 5.7 12.3 6.4 5.7.5 7.7.6 13.7.4 6.9-.2 8.3-.3 9.7-.2.8.1 2.6.1 4 0h3.8c2.6.2 3.9.2 11.2.1 4.1-.1 7.8-.1 8.3 0 2.1.4 9.8.2 10.3-.3.3-.3 1.8-.2 3.2.2 1.5.5 3.6.5 4.6.1 1.1-.3 3.8-.3 6.2 0 2.4.4 4.9.3 5.5-.1.7-.4 1.8-.5 2.4-.2 1.9.7 11.5.9 11.5.2 0-.3 2-.3 4.5.1 2.4.4 5 .3 5.6-.1.7-.4 1.8-.5 2.4-.2 1.9.7 11.5.9 11.5.2 0-.3 2-.3 4.5.1 2.4.4 5 .3 5.7-.1.6-.4 1.6-.5 2.1-.2 1.1.6 21.6.7 22.3 0 .3-.3 1.9-.1 3.5.3 1.6.5 3.1.5 3.4 0 .3-.4 2-.4 3.9 0s4 .4 4.7 0c.7-.5 1.8-.6 2.4-.3 1.9.7 11.5.9 11.5.2 0-.3 2-.3 4.5.1 2.4.4 5 .3 5.7-.1.6-.4 1.6-.5 2.1-.2 1.1.6 21.6.7 22.3 0 .3-.3 1.9-.1 3.5.3 1.6.5 3.1.5 3.4 0 .3-.4 2-.4 3.9 0s4 .4 4.7 0c.7-.5 1.8-.6 2.5-.3 1.9.7 20.4.9 20.4.2 0-.3 1.3-.4 2.9-.1 2.1.3 3.3 1.2 3.9 3.1.5 1.4 2.2 3.9 3.8 5.5 6.4 6.3 15.1 8.2 22.7 4.8 7.8-3.5 11.9-9.5 12.3-18.2.5-11-7.1-19.5-18.6-20.7-8-.9-17 4.4-20.1 11.9l-1.1 2.8H409.5c-103.8 0-131.5-.3-132.3-1.2-1-1.4-2.1-10.8-1.2-10.8.3 0 .4-2.6.3-5.8-.2-3.1-.3-8.2-.3-11.2.1-9.5-.1-13.3-.6-14.2-.3-.4-.1-.8.3-.8.5 0 .7-2.6.6-5.7-.2-3.2-.3-8.3-.3-11.3.1-9.5-.1-13.3-.6-14.2-.3-.4-.2-.8.3-.8.4 0 .7-4.2.6-9.2-.3-12.8-.3-14.1-.2-15.8 0-1.8 0-11.9-.1-17.4-.1-2.2-.3-4.3-.6-4.8-.3-.4-.2-.8.3-.8.7 0 .7-15.2 0-22.5-.2-1.7 0-4.4.3-6 .4-1.7.4-3.9 0-5s-.4-3 .1-4.2c.5-1.2.4-2.5 0-2.8-.5-.3-.6-2-.2-3.8.5-1.8.5-4.1.1-5.2-.4-1.1-.5-2.4-.3-2.8.3-.5.4-4.5.4-9-.2-7.9-.2-9.2 0-12 0-1.5 0-12-.1-17.1-.1-2.2-.3-4.3-.6-4.8-.3-.4-.2-.8.3-.8.4 0 .7-4.2.5-9.2-.3-12.5-.3-16.4-.2-22.4.1-2.8 0-5.5-.1-6s0-1.4.1-1.9c.1-.6.3-1.9.4-3 .1-2 .9-2 33.1-2.2 21.9-.1 33.4.2 34.2.9 1 .8 1.3 9.5 1.3 39.2 0 34.3.2 38.4 1.8 41.5 1.8 3.7 5.7 7 8.8 7.6 1 .2 58.8.4 128.4.4l126.5.1 2.3 4.3c3.9 7.3 13.9 12 22 10.2 9.4-2 16.5-11.5 15.8-21.1-.8-11-8.2-18.3-19.1-19-8.3-.5-16.5 4.5-19.5 11.6l-1.2 3H484.5c-104.6 0-126.4-.2-127.4-1.3-.8-1-1.1-12.8-1.1-39.5v-38l32.3-.1c17.7-.1 33.8-.2 35.7-.4 5.3-.5 9.2-2.8 10.9-6.4l1.6-3.3 77 .3 76.9.2.7 3.2c2.1 10.3 11.2 21.9 20.9 26.5 8.4 4 11.5 4.7 19.3 4.4 8.2-.4 11.8-1.1 15.8-3.2 1.6-.8 3-1.3 3.1-1.2.4.3 3.9-2.7 8.8-7.2 3.6-3.3 10.9-15 9.4-15-.3 0-.1-.7.6-1.5 1.8-2.2 2.2-17.1.6-22.5-3.5-11.6-11.8-21.3-22.4-26.3-11-5.1-26.1-4.5-36.5 1.6-9.2 5.4-16.5 14.6-18.8 23.9-.8 2.8-1.8 5.2-2.4 5.4-.5.2-36.4.5-79.7.6-78.1.3-78.7.3-81.5 2.4-1.6 1.2-2.9 3.3-3.1 4.7l-.3 2.7h-14.5c-14.3 0-15.1-.2-14.5-3.4.2-1.1.2-47.1 0-48.2-.1-.5-.1-1.4 0-1.9.2-1.3.2-29 0-30.2-.1-.4-.1-1.3 0-1.8.1-.6.1-8.9.1-18.6-.1-13.9.2-17.8 1.3-18.8 1.1-.8 15.9-1 57.2-.9l55.8.3 1.6 5.6c3.5 12.3 14.7 23.7 26.6 27.1 5.1 1.4 18.1 1.8 22 .6 19.6-6.1 30.9-21.6 30.1-41.1-.5-11-4.1-19.2-12.1-27.1-3.1-3.1-6.3-5.6-7.1-5.6-.8 0-1.4-.4-1.4-.9 0-.4-3.4-1.8-7.6-3.1-9.2-2.7-16.8-2.4-26.9 1-8.3 2.8-17 11.1-21.5 20.5-1.5 3.3-3 7.1-3.2 8.5l-.3 2.5-58 .5c-55.4.5-58.1.6-61.2 2.5-1.8 1-3.3 2.5-3.3 3.1 0 .7-.6 1.4-1.2 1.6-1 .4-1.4 14-1.6 62.8-.2 43.3-.6 62.8-1.4 63.7-.8 1-11.5 1.3-54.4 1.3H276v-6.3c0-7.1 0-9.2.1-11 0-1.5 0-12-.1-17.1-.1-2.2-.3-4.3-.6-4.8-.3-.4-.2-.8.3-.8.4 0 .7-4.4.5-9.7-.1-5.4-.2-12.7-.1-16.3 0-3.6 0-7.6-.1-9-.1-1.4-.1-3.1-.1-3.8.2-2.7.2-3.9.2-9.7 0-10.8-.2-13.8-.7-14.7-.3-.4-.2-.8.3-.8.7 0 .7-15.2 0-22.5-.2-1.7 0-4.4.3-6 .4-1.7.4-3.9 0-5s-.4-3 .1-4.2c.5-1.2.4-2.5 0-2.8-.5-.3-.6-2-.2-3.8.5-1.8.5-4.1.1-5.2-.4-1.1-.5-2.4-.3-2.8.3-.5.4-4.5.4-9-.2-7.9-.2-9.2 0-12 0-1.5 0-12-.1-17.1-.1-2.2-.3-4.3-.6-4.8-.3-.4-.2-.8.3-.8.4 0 .7-4.2.5-9.2-.4-17.3-.4-24.6 0-33.3.1-2.7.6-3.7 2.2-4.1 1.2-.2 22.6-.3 47.6-.2 35.8.2 45.4.6 45.2 1.6-.4 2.4 9.1 11 13.7 12.2 18.1 4.8 32.3-14 22.8-30.3-3.1-5.2-8.8-8.6-15.9-9.3-4.4-.4-6.2 0-10.6 2.2z"/></svg>